<svg width="50" height="50" viewBox="0 0 50 50" fill="none" xmlns="http://www.w3.org/2000/svg">
<path opacity="0.12" fill-rule="evenodd" clip-rule="evenodd" d="M12.5 3.34936C20.2351 -1.11645 29.765 -1.11645 37.5 3.34936C45.2351 7.81517 50 16.0684 50 25C50 33.9316 45.2351 42.1848 37.5 46.6506C29.765 51.1164 20.2351 51.1164 12.5 46.6506C4.76498 42.1848 0 33.9316 0 25C0 16.0684 4.76498 7.81517 12.5 3.34936Z" fill="#128EBF"/>
<path d="M10 11H26.9565L32.1739 16.2174V35.7826H10V11Z" fill="white"/>
<rect x="12.6089" y="16.4346" width="16.3043" height="1.82609" rx="0.913043" fill="white"/>
<rect x="12.6089" y="25.3478" width="16.3043" height="1.82609" rx="0.913043" fill="#128EBF"/>
<path fill-rule="evenodd" clip-rule="evenodd" d="M12.6089 21.7944C12.6089 21.2901 13.0177 20.8813 13.5219 20.8813H24.1506C24.6548 20.8813 25.0636 21.2901 25.0636 21.7944C25.0636 22.2987 24.6548 22.7074 24.1506 22.7074H13.5219C13.0177 22.7074 12.6089 22.2987 12.6089 21.7944Z" fill="#128EBF"/>
<path fill-rule="evenodd" clip-rule="evenodd" d="M12.6089 31.4782C12.6089 30.974 13.0177 30.5652 13.5219 30.5652H24.1506C24.6548 30.5652 25.0636 30.974 25.0636 31.4782C25.0636 31.9825 24.6548 32.3913 24.1506 32.3913H13.5219C13.0177 32.3913 12.6089 31.9825 12.6089 31.4782Z" fill="#128EBF"/>
<path d="M17.8262 14.9131H34.7827L40.0001 20.1305V39.6957H17.8262V14.9131Z" fill="#87CDE9"/>
<rect x="20.4346" y="20.3477" width="16.3043" height="1.82609" rx="0.913043" fill="white"/>
<rect x="20.4346" y="29.2609" width="16.3043" height="1.82609" rx="0.913043" fill="#128EBF"/>
<path fill-rule="evenodd" clip-rule="evenodd" d="M20.4346 25.7074C20.4346 25.2031 20.8434 24.7943 21.3476 24.7943H31.9762C32.4805 24.7943 32.8893 25.2031 32.8893 25.7074C32.8893 26.2116 32.4805 26.6204 31.9762 26.6204H21.3476C20.8434 26.6204 20.4346 26.2116 20.4346 25.7074Z" fill="#128EBF"/>
<path fill-rule="evenodd" clip-rule="evenodd" d="M20.4346 35.3913C20.4346 34.8871 20.8434 34.4783 21.3476 34.4783H31.9762C32.4805 34.4783 32.8893 34.8871 32.8893 35.3913C32.8893 35.8956 32.4805 36.3044 31.9762 36.3044H21.3476C20.8434 36.3044 20.4346 35.8956 20.4346 35.3913Z" fill="#128EBF"/>
</svg>
