<svg width="51" height="50" viewBox="0 0 51 50" fill="none" xmlns="http://www.w3.org/2000/svg">
<path opacity="0.12" fill-rule="evenodd" clip-rule="evenodd" d="M13 3.34936C20.7351 -1.11645 30.265 -1.11645 38 3.34936C45.7351 7.81517 50.5 16.0684 50.5 25C50.5 33.9316 45.7351 42.1848 38 46.6506C30.265 51.1164 20.7351 51.1164 13 46.6506C5.26498 42.1848 0.5 33.9316 0.5 25C0.5 16.0684 5.26498 7.81517 13 3.34936Z" fill="#128EBF"/>
<ellipse cx="26.241" cy="38.3096" rx="14.0686" ry="2.34477" fill="#3E8CB9"/>
<path d="M28.9965 23.5238L22.3994 24.8084C21.8412 24.9171 21.2935 24.5389 21.1823 23.968L19.3633 14.6259C19.2521 14.055 19.6179 13.499 20.1761 13.3903L26.7732 12.1057C27.3314 11.997 27.8791 12.3751 27.9903 12.9461L29.8094 22.2881C29.9205 22.8591 29.5548 23.4151 28.9965 23.5238Z" fill="#61C7B5"/>
<path d="M25.9581 16.0352C25.6282 16.0994 25.2731 16.0339 24.9942 15.8188C24.4161 15.4197 24.2544 14.5892 24.6354 13.9764C24.8183 13.6984 25.1229 13.5044 25.4528 13.4401C25.7826 13.3759 26.1378 13.4414 26.4166 13.6565C26.9948 14.0557 27.1564 14.8861 26.7754 15.4989C26.5925 15.777 26.2879 15.9709 25.9581 16.0352Z" fill="#3E8CB9"/>
<path d="M22.4063 16.7271C22.0765 16.7913 21.7213 16.7258 21.4424 16.5107C20.8643 16.1116 20.7026 15.2811 21.0837 14.6683C21.2666 14.3902 21.5712 14.1963 21.901 14.132C22.2309 14.0678 22.586 14.1333 22.8649 14.3484C23.443 14.7475 23.6047 15.578 23.2237 16.1908C23.0408 16.4689 22.7362 16.6628 22.4063 16.7271Z" fill="#3E8CB9"/>
<path d="M26.615 19.4089C26.2851 19.4731 25.93 19.4076 25.6511 19.1926C25.073 18.7934 24.9113 17.963 25.2923 17.3501C25.4752 17.0721 25.7748 16.8521 26.1046 16.7879C26.4345 16.7237 26.7896 16.7892 27.0685 17.0042C27.6466 17.4034 27.8083 18.2338 27.4273 18.8467C27.2494 19.1507 26.9448 19.3447 26.615 19.4089Z" fill="#3E8CB9"/>
<path d="M23.0627 20.1004C22.7329 20.1647 22.3778 20.0991 22.0989 19.8841C21.5208 19.4849 21.3591 18.6545 21.7401 18.0416C21.923 17.7636 22.2225 17.5437 22.5524 17.4794C22.8822 17.4152 23.2374 17.4807 23.5163 17.6958C24.0944 18.095 24.2561 18.9254 23.875 19.5382C23.6972 19.8422 23.3926 20.0362 23.0627 20.1004Z" fill="#3E8CB9"/>
<path d="M27.2722 22.7823C26.9424 22.8465 26.5872 22.781 26.3083 22.566C25.7302 22.1668 25.5685 21.3364 25.9496 20.7235C26.1325 20.4455 26.432 20.2256 26.7619 20.1613C27.0917 20.0971 27.4468 20.1626 27.7257 20.3777C28.3038 20.7768 28.4655 21.6073 28.0845 22.2201C27.9067 22.5241 27.6021 22.7181 27.2722 22.7823Z" fill="#3E8CB9"/>
<path d="M23.72 23.4738C23.3901 23.5381 23.035 23.4725 22.7561 23.2575C22.178 22.8583 22.0163 22.0279 22.3973 21.415C22.5802 21.137 22.8798 20.9171 23.2096 20.8529C23.5395 20.7886 23.8946 20.8542 24.1735 21.0692C24.7516 21.4684 24.9133 22.2988 24.5322 22.9117C24.3544 23.2156 24.0498 23.4096 23.72 23.4738Z" fill="#3E8CB9"/>
<path d="M22.3557 16.4673C22.9162 16.3581 23.2802 15.8049 23.1685 15.2316C23.0569 14.6583 22.512 14.2821 21.9515 14.3912C21.3909 14.5004 21.027 15.0536 21.1386 15.6269C21.2503 16.2002 21.7952 16.5764 22.3557 16.4673Z" fill="#D6EDF6"/>
<path d="M25.908 15.7757C26.4685 15.6666 26.8324 15.1134 26.7208 14.5401C26.6092 13.9668 26.0643 13.5906 25.5037 13.6997C24.9432 13.8089 24.5793 14.3621 24.6909 14.9353C24.8025 15.5086 25.3474 15.8849 25.908 15.7757Z" fill="#D6EDF6"/>
<path d="M23.0124 19.841C23.573 19.7319 23.9369 19.1787 23.8253 18.6054C23.7136 18.0321 23.1687 17.6559 22.6082 17.765C22.0477 17.8742 21.6838 18.4274 21.7954 19.0007C21.907 19.5739 22.4519 19.9502 23.0124 19.841Z" fill="#D6EDF6"/>
<path d="M26.5647 19.1491C27.1252 19.04 27.4891 18.4868 27.3775 17.9135C27.2659 17.3402 26.721 16.964 26.1605 17.0731C25.5999 17.1823 25.236 17.7355 25.3476 18.3088C25.4593 18.882 26.0042 19.2583 26.5647 19.1491Z" fill="#D6EDF6"/>
<path d="M23.6692 23.2145C24.2297 23.1053 24.5936 22.5521 24.482 21.9788C24.3704 21.4055 23.8255 21.0293 23.2649 21.1384C22.7044 21.2476 22.3405 21.8008 22.4521 22.3741C22.5637 22.9473 23.1086 23.3236 23.6692 23.2145Z" fill="#D6EDF6"/>
<path d="M27.2214 22.5227C27.782 22.4135 28.1459 21.8603 28.0343 21.287C27.9226 20.7138 27.3777 20.3375 26.8172 20.4467C26.2567 20.5558 25.8927 21.109 26.0044 21.6823C26.116 22.2556 26.6609 22.6318 27.2214 22.5227Z" fill="#D6EDF6"/>
<path d="M20.3612 12.229V9.35864H16.1513V12.229L14.0113 13.5924C13.5903 13.8436 13.3447 14.31 13.3447 14.8124V24.0693C13.3447 24.464 13.6605 24.7869 14.0464 24.7869H22.4661C22.852 24.7869 23.1678 24.464 23.1678 24.0693V14.8124C23.1678 14.31 22.9222 13.8436 22.5012 13.5924L20.3612 12.229Z" fill="#87CDE9"/>
<path d="M13.3447 21.5579V24.0694C13.3447 24.4641 13.6605 24.787 14.0464 24.787H22.4661C22.852 24.787 23.1678 24.4641 23.1678 24.0694V21.5579H13.3447Z" fill="#61C7B5"/>
<path d="M20.7121 10.794H15.8005C15.59 10.794 15.4497 10.6505 15.4497 10.4352V9.3588C15.4497 9.14352 15.59 9 15.8005 9H20.7121C20.9226 9 21.0629 9.14352 21.0629 9.3588V10.4352C21.0629 10.6505 20.9226 10.794 20.7121 10.794Z" fill="#3E8CB9"/>
<path d="M23.1678 15.817H13.3447V22.9929H23.1678V15.817Z" fill="#3E8CB9"/>
<path d="M20.3612 18.6874H18.958V17.2522H17.5547V18.6874H16.1514V20.1226H17.5547V21.5578H18.958V20.1226H20.3612V18.6874Z" fill="#D6EDF6"/>
<path d="M29.6006 27.6499L36.1978 28.9345C36.756 29.0432 37.3037 28.665 37.4148 28.0941L39.2339 18.752C39.3451 18.1811 38.9793 17.6251 38.4211 17.5164L31.824 16.2318C31.2657 16.1231 30.7181 16.5012 30.6069 17.0722L28.7878 26.4142C28.6766 26.9852 29.0424 27.5412 29.6006 27.6499Z" fill="#61C7B5"/>
<path d="M32.6391 20.1614C32.9689 20.2256 33.3241 20.1601 33.603 19.9451C34.1811 19.5459 34.3428 18.7155 33.9617 18.1026C33.7788 17.8246 33.4743 17.6306 33.1444 17.5664C32.8145 17.5021 32.4594 17.5677 32.1805 17.7827C31.6024 18.1819 31.4407 19.0123 31.8218 19.6252C32.0046 19.9032 32.3092 20.0972 32.6391 20.1614Z" fill="#3E8CB9"/>
<path d="M36.1908 20.8532C36.5207 20.9174 36.8758 20.8519 37.1547 20.6368C37.7328 20.2377 37.8945 19.4072 37.5135 18.7944C37.3306 18.5163 37.026 18.3224 36.6962 18.2581C36.3663 18.1939 36.0112 18.2594 35.7323 18.4745C35.1542 18.8736 34.9925 19.7041 35.3735 20.3169C35.5564 20.595 35.861 20.7889 36.1908 20.8532Z" fill="#3E8CB9"/>
<path d="M31.9822 23.535C32.312 23.5992 32.6672 23.5337 32.9461 23.3187C33.5242 22.9195 33.6859 22.0891 33.3048 21.4762C33.1219 21.1982 32.8224 20.9782 32.4925 20.914C32.1627 20.8498 31.8076 20.9153 31.5287 21.1303C30.9506 21.5295 30.7889 22.3599 31.1699 22.9728C31.3477 23.2768 31.6523 23.4708 31.9822 23.535Z" fill="#3E8CB9"/>
<path d="M35.5344 24.2265C35.8643 24.2908 36.2194 24.2252 36.4983 24.0102C37.0764 23.611 37.2381 22.7806 36.8571 22.1677C36.6742 21.8897 36.3746 21.6698 36.0448 21.6055C35.7149 21.5413 35.3598 21.6068 35.0809 21.8219C34.5028 22.2211 34.3411 23.0515 34.7221 23.6643C34.9 23.9683 35.2046 24.1623 35.5344 24.2265Z" fill="#3E8CB9"/>
<path d="M31.325 26.9084C31.6548 26.9726 32.0099 26.9071 32.2888 26.6921C32.8669 26.2929 33.0286 25.4625 32.6476 24.8496C32.4647 24.5716 32.1652 24.3517 31.8353 24.2874C31.5055 24.2232 31.1503 24.2887 30.8714 24.5038C30.2933 24.9029 30.1316 25.7333 30.5127 26.3462C30.6905 26.6502 30.9951 26.8442 31.325 26.9084Z" fill="#3E8CB9"/>
<path d="M34.8772 27.5999C35.2071 27.6642 35.5622 27.5986 35.8411 27.3836C36.4192 26.9844 36.5809 26.154 36.1998 25.5411C36.017 25.2631 35.7174 25.0432 35.3876 24.979C35.0577 24.9147 34.7026 24.9803 34.4237 25.1953C33.8456 25.5945 33.6839 26.4249 34.0649 27.0378C34.2428 27.3417 34.5473 27.5357 34.8772 27.5999Z" fill="#3E8CB9"/>
<path d="M36.2415 20.5934C35.6809 20.4842 35.317 19.931 35.4286 19.3577C35.5403 18.7844 36.0852 18.4082 36.6457 18.5173C37.2062 18.6265 37.5702 19.1797 37.4585 19.753C37.3469 20.3263 36.802 20.7025 36.2415 20.5934Z" fill="#D6EDF6"/>
<path d="M32.6892 19.9018C32.1287 19.7927 31.7648 19.2395 31.8764 18.6662C31.988 18.0929 32.5329 17.7167 33.0935 17.8258C33.654 17.935 34.0179 18.4882 33.9063 19.0614C33.7946 19.6347 33.2498 20.011 32.6892 19.9018Z" fill="#D6EDF6"/>
<path d="M35.5847 23.9671C35.0242 23.858 34.6603 23.3048 34.7719 22.7315C34.8835 22.1582 35.4284 21.782 35.989 21.8911C36.5495 22.0003 36.9134 22.5535 36.8018 23.1268C36.6902 23.7 36.1453 24.0763 35.5847 23.9671Z" fill="#D6EDF6"/>
<path d="M32.0325 23.2754C31.4719 23.1662 31.108 22.613 31.2197 22.0397C31.3313 21.4664 31.8762 21.0902 32.4367 21.1993C32.9973 21.3085 33.3612 21.8617 33.2495 22.435C33.1379 23.0083 32.593 23.3845 32.0325 23.2754Z" fill="#D6EDF6"/>
<path d="M34.928 27.3406C34.3674 27.2314 34.0035 26.6782 34.1152 26.1049C34.2268 25.5316 34.7717 25.1554 35.3322 25.2645C35.8928 25.3737 36.2567 25.9269 36.145 26.5002C36.0334 27.0734 35.4885 27.4497 34.928 27.3406Z" fill="#D6EDF6"/>
<path d="M31.3757 26.6488C30.8152 26.5396 30.4513 25.9864 30.5629 25.4131C30.6745 24.8399 31.2194 24.4636 31.78 24.5728C32.3405 24.6819 32.7044 25.2351 32.5928 25.8084C32.4812 26.3817 31.9363 26.7579 31.3757 26.6488Z" fill="#D6EDF6"/>
<path d="M12.3636 21.8962H18.8955H21.9091H30.0909H33.1045H39.6364C40.3864 21.8962 41 22.5117 41 23.264L40.9591 23.6333L37.4955 36.3127C37.1682 37.4616 36.1182 38.3096 34.8636 38.3096H17.1364C15.8818 38.3096 14.8318 37.4616 14.5182 36.3127L11.0545 23.6333C11.0136 23.5102 11 23.3871 11 23.264C11 22.5117 11.6136 21.8962 12.3636 21.8962Z" fill="#87CDE9"/>
<rect x="18.0342" y="26.5858" width="1.7586" height="7.0344" rx="0.8793" fill="white"/>
<rect x="25.6548" y="26.5858" width="1.7586" height="7.0344" rx="0.8793" fill="white"/>
<rect x="33.2754" y="26.5858" width="1.7586" height="7.0344" rx="0.8793" fill="white"/>
</svg>
