<svg width="24" height="24" viewBox="0 0 24 24" fill="none" xmlns="http://www.w3.org/2000/svg">
<path fill-rule="evenodd" clip-rule="evenodd" d="M3 2V21.59C3.13 21.59 3.26 21.54 3.35 21.44L4.14 20.65C4.34 20.45 4.65 20.45 4.85 20.65L5.64 21.44C5.84 21.64 6.15 21.64 6.35 21.44L7.14 20.65C7.34 20.45 7.65 20.45 7.85 20.65L8.64 21.44C8.84 21.64 9.15 21.64 9.35 21.44L10.14 20.65C10.34 20.45 10.65 20.45 10.85 20.65L11.64 21.44C11.84 21.64 12.15 21.64 12.35 21.44L13.14 20.65C13.34 20.45 13.65 20.45 13.85 20.65L14.64 21.44C14.84 21.64 15.15 21.64 15.35 21.44L16.14 20.65C16.34 20.45 16.65 20.45 16.85 20.65L17.64 21.44C17.84 21.64 18.15 21.64 18.35 21.44L19.14 20.65C19.34 20.45 19.65 20.45 19.85 20.65L20.64 21.44C20.74 21.54 20.87 21.59 20.99 21.59V2H3ZM7 17H17C17.55 17 18 16.55 18 16C18 15.45 17.55 15 17 15H7C6.45 15 6 15.45 6 16C6 16.55 6.45 17 7 17ZM7 13H17C17.55 13 18 12.55 18 12C18 11.45 17.55 11 17 11H7C6.45 11 6 11.45 6 12C6 12.55 6.45 13 7 13ZM7 9H17C17.55 9 18 8.55 18 8C18 7.45 17.55 7 17 7H7C6.45 7 6 7.45 6 8C6 8.55 6.45 9 7 9Z" fill="white"/>
</svg>
