<svg width="54" height="55" viewBox="0 0 54 55" fill="none" xmlns="http://www.w3.org/2000/svg">
<path d="M28.0977 12.1275C28.0977 10.3082 29.5725 8.83337 31.3918 8.83337H42.3722C44.1915 8.83337 45.6663 10.3082 45.6663 12.1275V23.1079C45.6663 24.9272 44.1915 26.402 42.3722 26.402H31.3918C29.5725 26.402 28.0977 24.9272 28.0977 23.1079V12.1275Z" fill="#61C7B5"/>
<path d="M8.33301 12.1275C8.33301 10.3082 9.80783 8.83337 11.6271 8.83337H22.6075C24.4268 8.83337 25.9016 10.3082 25.9016 12.1275V23.1079C25.9016 24.9272 24.4268 26.402 22.6075 26.402H11.6271C9.80783 26.402 8.33301 24.9272 8.33301 23.1079V12.1275Z" fill="#FCC4AE"/>
<path d="M8.33301 31.8922C8.33301 30.0729 9.80783 28.5981 11.6271 28.5981H22.6075C24.4268 28.5981 25.9016 30.0729 25.9016 31.8922V42.8726C25.9016 44.6919 24.4268 46.1667 22.6075 46.1667H11.6271C9.80783 46.1667 8.33301 44.6919 8.33301 42.8726V31.8922Z" fill="#3E8CB9"/>
<path d="M28.0977 31.8922C28.0977 30.0729 29.5725 28.5981 31.3918 28.5981H42.3722C44.1915 28.5981 45.6663 30.0729 45.6663 31.8922V42.8726C45.6663 44.6919 44.1915 46.1667 42.3722 46.1667H31.3918C29.5725 46.1667 28.0977 44.6919 28.0977 42.8726V31.8922Z" fill="#FCC4AE"/>
</svg>
